%FSLAX45Y45*%
G04 Gerber Fmt 4.5, Leading zero omitted, Abs format (unit mm)*
G04 Created by KiCad (PCBNEW (6.0.1)) date 2022-01-31 15:09:39*
%MOMM*%
%LPD*%
G01*
G04 APERTURE LIST*
%TA.AperFunction,Profile*%
%ADD10C,0.050000*%
%TD*%
%ADD11C,0.200000*%
%ADD12C,0.080000*%
G04 APERTURE END LIST*
D10*
X13700000Y-6950000D02*
X13700000Y-2450000D01*
X17050000Y-6950000D02*
X13700000Y-6950000D01*
X17050000Y-2450000D02*
X17050000Y-6950000D01*
X13700000Y-2450000D02*
X17050000Y-2450000D01*
D11*
D12*
X13860000Y-2725000D02*
X13940000Y-2805000D01*
X13940000Y-2725000D02*
X13860000Y-2805000D01*
X13860000Y-2979000D02*
X13940000Y-3059000D01*
X13940000Y-2979000D02*
X13860000Y-3059000D01*
X13860000Y-3233000D02*
X13940000Y-3313000D01*
X13940000Y-3233000D02*
X13860000Y-3313000D01*
X13860000Y-3487000D02*
X13940000Y-3567000D01*
X13940000Y-3487000D02*
X13860000Y-3567000D01*
X13860000Y-3741000D02*
X13940000Y-3821000D01*
X13940000Y-3741000D02*
X13860000Y-3821000D01*
X13860000Y-3995000D02*
X13940000Y-4075000D01*
X13940000Y-3995000D02*
X13860000Y-4075000D01*
X13860000Y-4249000D02*
X13940000Y-4329000D01*
X13940000Y-4249000D02*
X13860000Y-4329000D01*
X13860000Y-4503000D02*
X13940000Y-4583000D01*
X13940000Y-4503000D02*
X13860000Y-4583000D01*
X13860000Y-4757000D02*
X13940000Y-4837000D01*
X13940000Y-4757000D02*
X13860000Y-4837000D01*
X13860000Y-5011000D02*
X13940000Y-5091000D01*
X13940000Y-5011000D02*
X13860000Y-5091000D01*
X13860000Y-5265000D02*
X13940000Y-5345000D01*
X13940000Y-5265000D02*
X13860000Y-5345000D01*
X13860000Y-5519000D02*
X13940000Y-5599000D01*
X13940000Y-5519000D02*
X13860000Y-5599000D01*
X13860000Y-5773000D02*
X13940000Y-5853000D01*
X13940000Y-5773000D02*
X13860000Y-5853000D01*
X13860000Y-6027000D02*
X13940000Y-6107000D01*
X13940000Y-6027000D02*
X13860000Y-6107000D01*
X13860000Y-6281000D02*
X13940000Y-6361000D01*
X13940000Y-6281000D02*
X13860000Y-6361000D01*
X13860000Y-6535000D02*
X13940000Y-6615000D01*
X13940000Y-6535000D02*
X13860000Y-6615000D01*
X14160000Y-3235000D02*
X14240000Y-3315000D01*
X14240000Y-3235000D02*
X14160000Y-3315000D01*
X14160000Y-3489000D02*
X14240000Y-3569000D01*
X14240000Y-3489000D02*
X14160000Y-3569000D01*
X14160000Y-3743000D02*
X14240000Y-3823000D01*
X14240000Y-3743000D02*
X14160000Y-3823000D01*
X14160000Y-3997000D02*
X14240000Y-4077000D01*
X14240000Y-3997000D02*
X14160000Y-4077000D01*
X14160000Y-4251000D02*
X14240000Y-4331000D01*
X14240000Y-4251000D02*
X14160000Y-4331000D01*
X14160000Y-4505000D02*
X14240000Y-4585000D01*
X14240000Y-4505000D02*
X14160000Y-4585000D01*
X14160000Y-4759000D02*
X14240000Y-4839000D01*
X14240000Y-4759000D02*
X14160000Y-4839000D01*
X14160000Y-5013000D02*
X14240000Y-5093000D01*
X14240000Y-5013000D02*
X14160000Y-5093000D01*
X14160000Y-5267000D02*
X14240000Y-5347000D01*
X14240000Y-5267000D02*
X14160000Y-5347000D01*
X14160000Y-5521000D02*
X14240000Y-5601000D01*
X14240000Y-5521000D02*
X14160000Y-5601000D01*
X14160000Y-5775000D02*
X14240000Y-5855000D01*
X14240000Y-5775000D02*
X14160000Y-5855000D01*
X14160000Y-6029000D02*
X14240000Y-6109000D01*
X14240000Y-6029000D02*
X14160000Y-6109000D01*
X14160000Y-6283000D02*
X14240000Y-6363000D01*
X14240000Y-6283000D02*
X14160000Y-6363000D01*
X14160000Y-6537000D02*
X14240000Y-6617000D01*
X14240000Y-6537000D02*
X14160000Y-6617000D01*
X15384000Y-2725000D02*
X15464000Y-2805000D01*
X15464000Y-2725000D02*
X15384000Y-2805000D01*
X15384000Y-2979000D02*
X15464000Y-3059000D01*
X15464000Y-2979000D02*
X15384000Y-3059000D01*
X15384000Y-3233000D02*
X15464000Y-3313000D01*
X15464000Y-3233000D02*
X15384000Y-3313000D01*
X15384000Y-3487000D02*
X15464000Y-3567000D01*
X15464000Y-3487000D02*
X15384000Y-3567000D01*
X15384000Y-3741000D02*
X15464000Y-3821000D01*
X15464000Y-3741000D02*
X15384000Y-3821000D01*
X15384000Y-3995000D02*
X15464000Y-4075000D01*
X15464000Y-3995000D02*
X15384000Y-4075000D01*
X15384000Y-4249000D02*
X15464000Y-4329000D01*
X15464000Y-4249000D02*
X15384000Y-4329000D01*
X15384000Y-4503000D02*
X15464000Y-4583000D01*
X15464000Y-4503000D02*
X15384000Y-4583000D01*
X15384000Y-4757000D02*
X15464000Y-4837000D01*
X15464000Y-4757000D02*
X15384000Y-4837000D01*
X15384000Y-5011000D02*
X15464000Y-5091000D01*
X15464000Y-5011000D02*
X15384000Y-5091000D01*
X15384000Y-5265000D02*
X15464000Y-5345000D01*
X15464000Y-5265000D02*
X15384000Y-5345000D01*
X15384000Y-5519000D02*
X15464000Y-5599000D01*
X15464000Y-5519000D02*
X15384000Y-5599000D01*
X15384000Y-5773000D02*
X15464000Y-5853000D01*
X15464000Y-5773000D02*
X15384000Y-5853000D01*
X15384000Y-6027000D02*
X15464000Y-6107000D01*
X15464000Y-6027000D02*
X15384000Y-6107000D01*
X15384000Y-6281000D02*
X15464000Y-6361000D01*
X15464000Y-6281000D02*
X15384000Y-6361000D01*
X15384000Y-6535000D02*
X15464000Y-6615000D01*
X15464000Y-6535000D02*
X15384000Y-6615000D01*
X15684000Y-3235000D02*
X15764000Y-3315000D01*
X15764000Y-3235000D02*
X15684000Y-3315000D01*
X15684000Y-3489000D02*
X15764000Y-3569000D01*
X15764000Y-3489000D02*
X15684000Y-3569000D01*
X15684000Y-3743000D02*
X15764000Y-3823000D01*
X15764000Y-3743000D02*
X15684000Y-3823000D01*
X15684000Y-3997000D02*
X15764000Y-4077000D01*
X15764000Y-3997000D02*
X15684000Y-4077000D01*
X15684000Y-4251000D02*
X15764000Y-4331000D01*
X15764000Y-4251000D02*
X15684000Y-4331000D01*
X15684000Y-4505000D02*
X15764000Y-4585000D01*
X15764000Y-4505000D02*
X15684000Y-4585000D01*
X15684000Y-4759000D02*
X15764000Y-4839000D01*
X15764000Y-4759000D02*
X15684000Y-4839000D01*
X15684000Y-5013000D02*
X15764000Y-5093000D01*
X15764000Y-5013000D02*
X15684000Y-5093000D01*
X15684000Y-5267000D02*
X15764000Y-5347000D01*
X15764000Y-5267000D02*
X15684000Y-5347000D01*
X15684000Y-5521000D02*
X15764000Y-5601000D01*
X15764000Y-5521000D02*
X15684000Y-5601000D01*
X15684000Y-5775000D02*
X15764000Y-5855000D01*
X15764000Y-5775000D02*
X15684000Y-5855000D01*
X15684000Y-6029000D02*
X15764000Y-6109000D01*
X15764000Y-6029000D02*
X15684000Y-6109000D01*
X15684000Y-6283000D02*
X15764000Y-6363000D01*
X15764000Y-6283000D02*
X15684000Y-6363000D01*
X15684000Y-6537000D02*
X15764000Y-6617000D01*
X15764000Y-6537000D02*
X15684000Y-6617000D01*
X16110000Y-2985000D02*
X16190000Y-3065000D01*
X16190000Y-2985000D02*
X16110000Y-3065000D01*
X16110000Y-3485000D02*
X16190000Y-3565000D01*
X16190000Y-3485000D02*
X16110000Y-3565000D01*
X16110000Y-4235000D02*
X16190000Y-4315000D01*
X16190000Y-4235000D02*
X16110000Y-4315000D01*
X16110000Y-4489000D02*
X16190000Y-4569000D01*
X16190000Y-4489000D02*
X16110000Y-4569000D01*
X16110000Y-4743000D02*
X16190000Y-4823000D01*
X16190000Y-4743000D02*
X16110000Y-4823000D01*
X16110000Y-4997000D02*
X16190000Y-5077000D01*
X16190000Y-4997000D02*
X16110000Y-5077000D01*
X16110000Y-5251000D02*
X16190000Y-5331000D01*
X16190000Y-5251000D02*
X16110000Y-5331000D01*
X16110000Y-5673000D02*
X16190000Y-5753000D01*
X16190000Y-5673000D02*
X16110000Y-5753000D01*
X16110000Y-6435000D02*
X16190000Y-6515000D01*
X16190000Y-6435000D02*
X16110000Y-6515000D01*
X16364000Y-5673000D02*
X16444000Y-5753000D01*
X16444000Y-5673000D02*
X16364000Y-5753000D01*
X16364000Y-6435000D02*
X16444000Y-6515000D01*
X16444000Y-6435000D02*
X16364000Y-6515000D01*
X16618000Y-5673000D02*
X16698000Y-5753000D01*
X16698000Y-5673000D02*
X16618000Y-5753000D01*
X16618000Y-6435000D02*
X16698000Y-6515000D01*
X16698000Y-6435000D02*
X16618000Y-6515000D01*
D11*
X13955119Y-7262976D02*
X13955119Y-7062976D01*
X14002738Y-7062976D01*
X14031309Y-7072500D01*
X14050357Y-7091548D01*
X14059881Y-7110595D01*
X14069405Y-7148690D01*
X14069405Y-7177262D01*
X14059881Y-7215357D01*
X14050357Y-7234405D01*
X14031309Y-7253452D01*
X14002738Y-7262976D01*
X13955119Y-7262976D01*
X14155119Y-7262976D02*
X14155119Y-7129643D01*
X14155119Y-7167738D02*
X14164643Y-7148690D01*
X14174167Y-7139167D01*
X14193214Y-7129643D01*
X14212262Y-7129643D01*
X14278928Y-7262976D02*
X14278928Y-7129643D01*
X14278928Y-7062976D02*
X14269405Y-7072500D01*
X14278928Y-7082024D01*
X14288452Y-7072500D01*
X14278928Y-7062976D01*
X14278928Y-7082024D01*
X14402738Y-7262976D02*
X14383690Y-7253452D01*
X14374167Y-7234405D01*
X14374167Y-7062976D01*
X14507500Y-7262976D02*
X14488452Y-7253452D01*
X14478928Y-7234405D01*
X14478928Y-7062976D01*
X14736071Y-7262976D02*
X14736071Y-7062976D01*
X14802738Y-7205833D01*
X14869405Y-7062976D01*
X14869405Y-7262976D01*
X15050357Y-7262976D02*
X15050357Y-7158214D01*
X15040833Y-7139167D01*
X15021786Y-7129643D01*
X14983690Y-7129643D01*
X14964643Y-7139167D01*
X15050357Y-7253452D02*
X15031309Y-7262976D01*
X14983690Y-7262976D01*
X14964643Y-7253452D01*
X14955119Y-7234405D01*
X14955119Y-7215357D01*
X14964643Y-7196309D01*
X14983690Y-7186786D01*
X15031309Y-7186786D01*
X15050357Y-7177262D01*
X15145595Y-7129643D02*
X15145595Y-7329643D01*
X15145595Y-7139167D02*
X15164643Y-7129643D01*
X15202738Y-7129643D01*
X15221786Y-7139167D01*
X15231309Y-7148690D01*
X15240833Y-7167738D01*
X15240833Y-7224881D01*
X15231309Y-7243928D01*
X15221786Y-7253452D01*
X15202738Y-7262976D01*
X15164643Y-7262976D01*
X15145595Y-7253452D01*
X15326548Y-7243928D02*
X15336071Y-7253452D01*
X15326548Y-7262976D01*
X15317024Y-7253452D01*
X15326548Y-7243928D01*
X15326548Y-7262976D01*
X15326548Y-7139167D02*
X15336071Y-7148690D01*
X15326548Y-7158214D01*
X15317024Y-7148690D01*
X15326548Y-7139167D01*
X15326548Y-7158214D01*
D12*
X13617500Y-7552500D02*
X13697500Y-7632500D01*
X13697500Y-7552500D02*
X13617500Y-7632500D01*
D11*
X13993214Y-7482976D02*
X14012262Y-7482976D01*
X14031309Y-7492500D01*
X14040833Y-7502024D01*
X14050357Y-7521071D01*
X14059881Y-7559167D01*
X14059881Y-7606786D01*
X14050357Y-7644881D01*
X14040833Y-7663928D01*
X14031309Y-7673452D01*
X14012262Y-7682976D01*
X13993214Y-7682976D01*
X13974167Y-7673452D01*
X13964643Y-7663928D01*
X13955119Y-7644881D01*
X13945595Y-7606786D01*
X13945595Y-7559167D01*
X13955119Y-7521071D01*
X13964643Y-7502024D01*
X13974167Y-7492500D01*
X13993214Y-7482976D01*
X14145595Y-7663928D02*
X14155119Y-7673452D01*
X14145595Y-7682976D01*
X14136071Y-7673452D01*
X14145595Y-7663928D01*
X14145595Y-7682976D01*
X14269405Y-7568690D02*
X14250357Y-7559167D01*
X14240833Y-7549643D01*
X14231309Y-7530595D01*
X14231309Y-7521071D01*
X14240833Y-7502024D01*
X14250357Y-7492500D01*
X14269405Y-7482976D01*
X14307500Y-7482976D01*
X14326548Y-7492500D01*
X14336071Y-7502024D01*
X14345595Y-7521071D01*
X14345595Y-7530595D01*
X14336071Y-7549643D01*
X14326548Y-7559167D01*
X14307500Y-7568690D01*
X14269405Y-7568690D01*
X14250357Y-7578214D01*
X14240833Y-7587738D01*
X14231309Y-7606786D01*
X14231309Y-7644881D01*
X14240833Y-7663928D01*
X14250357Y-7673452D01*
X14269405Y-7682976D01*
X14307500Y-7682976D01*
X14326548Y-7673452D01*
X14336071Y-7663928D01*
X14345595Y-7644881D01*
X14345595Y-7606786D01*
X14336071Y-7587738D01*
X14326548Y-7578214D01*
X14307500Y-7568690D01*
X14469405Y-7482976D02*
X14488452Y-7482976D01*
X14507500Y-7492500D01*
X14517024Y-7502024D01*
X14526548Y-7521071D01*
X14536071Y-7559167D01*
X14536071Y-7606786D01*
X14526548Y-7644881D01*
X14517024Y-7663928D01*
X14507500Y-7673452D01*
X14488452Y-7682976D01*
X14469405Y-7682976D01*
X14450357Y-7673452D01*
X14440833Y-7663928D01*
X14431309Y-7644881D01*
X14421786Y-7606786D01*
X14421786Y-7559167D01*
X14431309Y-7521071D01*
X14440833Y-7502024D01*
X14450357Y-7492500D01*
X14469405Y-7482976D01*
X14659881Y-7482976D02*
X14678928Y-7482976D01*
X14697976Y-7492500D01*
X14707500Y-7502024D01*
X14717024Y-7521071D01*
X14726548Y-7559167D01*
X14726548Y-7606786D01*
X14717024Y-7644881D01*
X14707500Y-7663928D01*
X14697976Y-7673452D01*
X14678928Y-7682976D01*
X14659881Y-7682976D01*
X14640833Y-7673452D01*
X14631309Y-7663928D01*
X14621786Y-7644881D01*
X14612262Y-7606786D01*
X14612262Y-7559167D01*
X14621786Y-7521071D01*
X14631309Y-7502024D01*
X14640833Y-7492500D01*
X14659881Y-7482976D01*
X14812262Y-7682976D02*
X14812262Y-7549643D01*
X14812262Y-7568690D02*
X14821786Y-7559167D01*
X14840833Y-7549643D01*
X14869405Y-7549643D01*
X14888452Y-7559167D01*
X14897976Y-7578214D01*
X14897976Y-7682976D01*
X14897976Y-7578214D02*
X14907500Y-7559167D01*
X14926548Y-7549643D01*
X14955119Y-7549643D01*
X14974167Y-7559167D01*
X14983690Y-7578214D01*
X14983690Y-7682976D01*
X15078928Y-7682976D02*
X15078928Y-7549643D01*
X15078928Y-7568690D02*
X15088452Y-7559167D01*
X15107500Y-7549643D01*
X15136071Y-7549643D01*
X15155119Y-7559167D01*
X15164643Y-7578214D01*
X15164643Y-7682976D01*
X15164643Y-7578214D02*
X15174167Y-7559167D01*
X15193214Y-7549643D01*
X15221786Y-7549643D01*
X15240833Y-7559167D01*
X15250357Y-7578214D01*
X15250357Y-7682976D01*
X15640833Y-7473452D02*
X15469405Y-7730595D01*
X15897976Y-7482976D02*
X15917024Y-7482976D01*
X15936071Y-7492500D01*
X15945595Y-7502024D01*
X15955119Y-7521071D01*
X15964643Y-7559167D01*
X15964643Y-7606786D01*
X15955119Y-7644881D01*
X15945595Y-7663928D01*
X15936071Y-7673452D01*
X15917024Y-7682976D01*
X15897976Y-7682976D01*
X15878928Y-7673452D01*
X15869405Y-7663928D01*
X15859881Y-7644881D01*
X15850357Y-7606786D01*
X15850357Y-7559167D01*
X15859881Y-7521071D01*
X15869405Y-7502024D01*
X15878928Y-7492500D01*
X15897976Y-7482976D01*
X16050357Y-7663928D02*
X16059881Y-7673452D01*
X16050357Y-7682976D01*
X16040833Y-7673452D01*
X16050357Y-7663928D01*
X16050357Y-7682976D01*
X16183690Y-7482976D02*
X16202738Y-7482976D01*
X16221786Y-7492500D01*
X16231309Y-7502024D01*
X16240833Y-7521071D01*
X16250357Y-7559167D01*
X16250357Y-7606786D01*
X16240833Y-7644881D01*
X16231309Y-7663928D01*
X16221786Y-7673452D01*
X16202738Y-7682976D01*
X16183690Y-7682976D01*
X16164643Y-7673452D01*
X16155119Y-7663928D01*
X16145595Y-7644881D01*
X16136071Y-7606786D01*
X16136071Y-7559167D01*
X16145595Y-7521071D01*
X16155119Y-7502024D01*
X16164643Y-7492500D01*
X16183690Y-7482976D01*
X16317024Y-7482976D02*
X16440833Y-7482976D01*
X16374167Y-7559167D01*
X16402738Y-7559167D01*
X16421786Y-7568690D01*
X16431309Y-7578214D01*
X16440833Y-7597262D01*
X16440833Y-7644881D01*
X16431309Y-7663928D01*
X16421786Y-7673452D01*
X16402738Y-7682976D01*
X16345595Y-7682976D01*
X16326548Y-7673452D01*
X16317024Y-7663928D01*
X16631309Y-7682976D02*
X16517024Y-7682976D01*
X16574167Y-7682976D02*
X16574167Y-7482976D01*
X16555119Y-7511548D01*
X16536071Y-7530595D01*
X16517024Y-7540119D01*
X16812262Y-7482976D02*
X16717024Y-7482976D01*
X16707500Y-7578214D01*
X16717024Y-7568690D01*
X16736071Y-7559167D01*
X16783690Y-7559167D01*
X16802738Y-7568690D01*
X16812262Y-7578214D01*
X16821786Y-7597262D01*
X16821786Y-7644881D01*
X16812262Y-7663928D01*
X16802738Y-7673452D01*
X16783690Y-7682976D01*
X16736071Y-7682976D01*
X16717024Y-7673452D01*
X16707500Y-7663928D01*
X16897976Y-7482976D02*
X16897976Y-7521071D01*
X16974167Y-7482976D02*
X16974167Y-7521071D01*
X17269405Y-7759167D02*
X17259881Y-7749643D01*
X17240833Y-7721071D01*
X17231310Y-7702024D01*
X17221786Y-7673452D01*
X17212262Y-7625833D01*
X17212262Y-7587738D01*
X17221786Y-7540119D01*
X17231310Y-7511548D01*
X17240833Y-7492500D01*
X17259881Y-7463928D01*
X17269405Y-7454405D01*
X17326548Y-7482976D02*
X17459881Y-7482976D01*
X17374167Y-7682976D01*
X17517024Y-7482976D02*
X17640833Y-7482976D01*
X17574167Y-7559167D01*
X17602738Y-7559167D01*
X17621786Y-7568690D01*
X17631310Y-7578214D01*
X17640833Y-7597262D01*
X17640833Y-7644881D01*
X17631310Y-7663928D01*
X17621786Y-7673452D01*
X17602738Y-7682976D01*
X17545595Y-7682976D01*
X17526548Y-7673452D01*
X17517024Y-7663928D01*
X17878929Y-7682976D02*
X17878929Y-7482976D01*
X17964643Y-7682976D02*
X17964643Y-7578214D01*
X17955119Y-7559167D01*
X17936071Y-7549643D01*
X17907500Y-7549643D01*
X17888452Y-7559167D01*
X17878929Y-7568690D01*
X18088452Y-7682976D02*
X18069405Y-7673452D01*
X18059881Y-7663928D01*
X18050357Y-7644881D01*
X18050357Y-7587738D01*
X18059881Y-7568690D01*
X18069405Y-7559167D01*
X18088452Y-7549643D01*
X18117024Y-7549643D01*
X18136071Y-7559167D01*
X18145595Y-7568690D01*
X18155119Y-7587738D01*
X18155119Y-7644881D01*
X18145595Y-7663928D01*
X18136071Y-7673452D01*
X18117024Y-7682976D01*
X18088452Y-7682976D01*
X18269405Y-7682976D02*
X18250357Y-7673452D01*
X18240833Y-7654405D01*
X18240833Y-7482976D01*
X18421786Y-7673452D02*
X18402738Y-7682976D01*
X18364643Y-7682976D01*
X18345595Y-7673452D01*
X18336071Y-7654405D01*
X18336071Y-7578214D01*
X18345595Y-7559167D01*
X18364643Y-7549643D01*
X18402738Y-7549643D01*
X18421786Y-7559167D01*
X18431310Y-7578214D01*
X18431310Y-7597262D01*
X18336071Y-7616309D01*
X18507500Y-7673452D02*
X18526548Y-7682976D01*
X18564643Y-7682976D01*
X18583690Y-7673452D01*
X18593214Y-7654405D01*
X18593214Y-7644881D01*
X18583690Y-7625833D01*
X18564643Y-7616309D01*
X18536071Y-7616309D01*
X18517024Y-7606786D01*
X18507500Y-7587738D01*
X18507500Y-7578214D01*
X18517024Y-7559167D01*
X18536071Y-7549643D01*
X18564643Y-7549643D01*
X18583690Y-7559167D01*
X18659881Y-7759167D02*
X18669405Y-7749643D01*
X18688452Y-7721071D01*
X18697976Y-7702024D01*
X18707500Y-7673452D01*
X18717024Y-7625833D01*
X18717024Y-7587738D01*
X18707500Y-7540119D01*
X18697976Y-7511548D01*
X18688452Y-7492500D01*
X18669405Y-7463928D01*
X18659881Y-7454405D01*
M02*
