%TF.GenerationSoftware,KiCad,Pcbnew,(6.0.1)*%
%TF.CreationDate,2022-01-31T15:08:42+08:00*%
%TF.ProjectId,BeeMultiROM,4265654d-756c-4746-9952-4f4d2e6b6963,rev?*%
%TF.SameCoordinates,Original*%
%TF.FileFunction,Copper,L1,Top*%
%TF.FilePolarity,Positive*%
%FSLAX46Y46*%
G04 Gerber Fmt 4.6, Leading zero omitted, Abs format (unit mm)*
G04 Created by KiCad (PCBNEW (6.0.1)) date 2022-01-31 15:08:42*
%MOMM*%
%LPD*%
G01*
G04 APERTURE LIST*
%TA.AperFunction,ComponentPad*%
%ADD10C,1.600000*%
%TD*%
%TA.AperFunction,ComponentPad*%
%ADD11O,2.400000X1.600000*%
%TD*%
%TA.AperFunction,ComponentPad*%
%ADD12R,2.400000X1.600000*%
%TD*%
%TA.AperFunction,ComponentPad*%
%ADD13O,1.600000X1.600000*%
%TD*%
%TA.AperFunction,ComponentPad*%
%ADD14R,1.600000X1.600000*%
%TD*%
%TA.AperFunction,ComponentPad*%
%ADD15R,1.600000X2.400000*%
%TD*%
%TA.AperFunction,ComponentPad*%
%ADD16O,1.600000X2.400000*%
%TD*%
%TA.AperFunction,Conductor*%
%ADD17C,0.500000*%
%TD*%
%TA.AperFunction,Conductor*%
%ADD18C,1.000000*%
%TD*%
G04 APERTURE END LIST*
D10*
X161500000Y-35250000D03*
X161500000Y-30250000D03*
D11*
X154240000Y-27650000D03*
X139000000Y-65750000D03*
X154240000Y-30190000D03*
X139000000Y-63210000D03*
X154240000Y-32730000D03*
X139000000Y-60670000D03*
X154240000Y-35270000D03*
X139000000Y-58130000D03*
X154240000Y-37810000D03*
X139000000Y-55590000D03*
X154240000Y-40350000D03*
X139000000Y-53050000D03*
X154240000Y-42890000D03*
X139000000Y-50510000D03*
X154240000Y-45430000D03*
X139000000Y-47970000D03*
X154240000Y-47970000D03*
X139000000Y-45430000D03*
X154240000Y-50510000D03*
X139000000Y-42890000D03*
X154240000Y-53050000D03*
X139000000Y-40350000D03*
X154240000Y-55590000D03*
X139000000Y-37810000D03*
X154240000Y-58130000D03*
X139000000Y-35270000D03*
X154240000Y-60670000D03*
X139000000Y-32730000D03*
X154240000Y-63210000D03*
X139000000Y-30190000D03*
X154240000Y-65750000D03*
D12*
X139000000Y-27650000D03*
D13*
X157240000Y-32750000D03*
X142000000Y-65770000D03*
X157240000Y-35290000D03*
X142000000Y-63230000D03*
X157240000Y-37830000D03*
X142000000Y-60690000D03*
X157240000Y-40370000D03*
X142000000Y-58150000D03*
X157240000Y-42910000D03*
X142000000Y-55610000D03*
X157240000Y-45450000D03*
X142000000Y-53070000D03*
X157240000Y-47990000D03*
X142000000Y-50530000D03*
X157240000Y-50530000D03*
X142000000Y-47990000D03*
X157240000Y-53070000D03*
X142000000Y-45450000D03*
X157240000Y-55610000D03*
X142000000Y-42910000D03*
X157240000Y-58150000D03*
X142000000Y-40370000D03*
X157240000Y-60690000D03*
X142000000Y-37830000D03*
X157240000Y-63230000D03*
X142000000Y-35290000D03*
X157240000Y-65770000D03*
D14*
X142000000Y-32750000D03*
D15*
X161500000Y-64750000D03*
D16*
X166580000Y-57130000D03*
X164040000Y-64750000D03*
X164040000Y-57130000D03*
X166580000Y-64750000D03*
X161500000Y-57130000D03*
D13*
X161500000Y-52910000D03*
X161500000Y-50370000D03*
X161500000Y-47830000D03*
X161500000Y-45290000D03*
D14*
X161500000Y-42750000D03*
D17*
X161500000Y-64750000D02*
X160250000Y-64750000D01*
X160250000Y-64750000D02*
X159250000Y-63750000D01*
X159250000Y-63750000D02*
X159250000Y-53750000D01*
X160090000Y-52910000D02*
X161500000Y-52910000D01*
X159250000Y-53750000D02*
X160090000Y-52910000D01*
X166580000Y-57130000D02*
X166580000Y-51330000D01*
X165620000Y-50370000D02*
X161500000Y-50370000D01*
X166580000Y-51330000D02*
X165620000Y-50370000D01*
X167330000Y-47830000D02*
X161500000Y-47830000D01*
X166580000Y-64750000D02*
X168250000Y-64750000D01*
X168250000Y-48750000D02*
X167330000Y-47830000D01*
X168250000Y-64750000D02*
X168250000Y-48750000D01*
X161500000Y-57130000D02*
X161380000Y-57130000D01*
X155510001Y-34000001D02*
X154240000Y-32730000D01*
X157800003Y-34000001D02*
X155510001Y-34000001D01*
X158490001Y-34689999D02*
X157800003Y-34000001D01*
X158490001Y-42280001D02*
X158490001Y-34689999D01*
X161500000Y-45290000D02*
X158490001Y-42280001D01*
D18*
X154240000Y-27650000D02*
X155400000Y-27650000D01*
X157240000Y-29490000D02*
X157240000Y-32750000D01*
X155400000Y-27650000D02*
X157240000Y-29490000D01*
X161500000Y-38000000D02*
X159750000Y-36250000D01*
X161500000Y-42750000D02*
X161500000Y-38000000D01*
X158371370Y-32750000D02*
X157240000Y-32750000D01*
X159750000Y-34128630D02*
X158371370Y-32750000D01*
X159750000Y-36250000D02*
X159750000Y-34128630D01*
X159740000Y-30250000D02*
X157240000Y-32750000D01*
X161500000Y-30250000D02*
X159740000Y-30250000D01*
X141980000Y-65750000D02*
X142000000Y-65770000D01*
X139000000Y-65750000D02*
X141980000Y-65750000D01*
X163719999Y-67270001D02*
X164040000Y-66950000D01*
X164040000Y-66950000D02*
X164040000Y-64750000D01*
X143500001Y-67270001D02*
X163719999Y-67270001D01*
X142000000Y-65770000D02*
X143500001Y-67270001D01*
D17*
X141980000Y-63210000D02*
X142000000Y-63230000D01*
X139000000Y-63210000D02*
X141980000Y-63210000D01*
X157220000Y-37810000D02*
X157240000Y-37830000D01*
X154240000Y-37810000D02*
X157220000Y-37810000D01*
X141980000Y-60670000D02*
X142000000Y-60690000D01*
X139000000Y-60670000D02*
X141980000Y-60670000D01*
X157220000Y-40350000D02*
X157240000Y-40370000D01*
X154240000Y-40350000D02*
X157220000Y-40350000D01*
X141980000Y-58130000D02*
X142000000Y-58150000D01*
X139000000Y-58130000D02*
X141980000Y-58130000D01*
X154240000Y-42890000D02*
X157860000Y-42890000D01*
X157840000Y-42910000D02*
X157240000Y-42910000D01*
X157860000Y-42890000D02*
X157840000Y-42910000D01*
X141980000Y-55590000D02*
X142000000Y-55610000D01*
X139000000Y-55590000D02*
X141980000Y-55590000D01*
X157220000Y-45430000D02*
X157240000Y-45450000D01*
X154240000Y-45430000D02*
X157220000Y-45430000D01*
X141980000Y-53050000D02*
X142000000Y-53070000D01*
X139000000Y-53050000D02*
X141980000Y-53050000D01*
X157220000Y-47970000D02*
X157240000Y-47990000D01*
X154240000Y-47970000D02*
X157220000Y-47970000D01*
X141980000Y-50510000D02*
X142000000Y-50530000D01*
X139000000Y-50510000D02*
X141980000Y-50510000D01*
X157220000Y-50510000D02*
X157240000Y-50530000D01*
X154240000Y-50510000D02*
X157220000Y-50510000D01*
X141980000Y-47970000D02*
X142000000Y-47990000D01*
X139000000Y-47970000D02*
X141980000Y-47970000D01*
X157220000Y-53050000D02*
X157240000Y-53070000D01*
X154240000Y-53050000D02*
X157220000Y-53050000D01*
X141980000Y-45430000D02*
X142000000Y-45450000D01*
X139000000Y-45430000D02*
X141980000Y-45430000D01*
X157220000Y-55590000D02*
X157240000Y-55610000D01*
X154240000Y-55590000D02*
X157220000Y-55590000D01*
X141980000Y-42890000D02*
X142000000Y-42910000D01*
X139000000Y-42890000D02*
X141980000Y-42890000D01*
X157220000Y-58130000D02*
X157240000Y-58150000D01*
X154240000Y-58130000D02*
X157220000Y-58130000D01*
X141980000Y-40350000D02*
X142000000Y-40370000D01*
X139000000Y-40350000D02*
X141980000Y-40350000D01*
X157220000Y-60670000D02*
X157240000Y-60690000D01*
X154240000Y-60670000D02*
X157220000Y-60670000D01*
X141980000Y-37810000D02*
X142000000Y-37830000D01*
X139000000Y-37810000D02*
X141980000Y-37810000D01*
X157220000Y-63210000D02*
X157240000Y-63230000D01*
X154240000Y-63210000D02*
X157220000Y-63210000D01*
X141980000Y-35270000D02*
X142000000Y-35290000D01*
X139000000Y-35270000D02*
X141980000Y-35270000D01*
X157220000Y-65750000D02*
X157240000Y-65770000D01*
X154240000Y-65750000D02*
X157220000Y-65750000D01*
M02*
