%TF.GenerationSoftware,KiCad,Pcbnew,(6.0.1)*%
%TF.CreationDate,2022-01-31T15:08:43+08:00*%
%TF.ProjectId,BeeMultiROM,4265654d-756c-4746-9952-4f4d2e6b6963,rev?*%
%TF.SameCoordinates,Original*%
%TF.FileFunction,Soldermask,Bot*%
%TF.FilePolarity,Negative*%
%FSLAX46Y46*%
G04 Gerber Fmt 4.6, Leading zero omitted, Abs format (unit mm)*
G04 Created by KiCad (PCBNEW (6.0.1)) date 2022-01-31 15:08:43*
%MOMM*%
%LPD*%
G01*
G04 APERTURE LIST*
%ADD10C,1.600000*%
%ADD11O,2.400000X1.600000*%
%ADD12R,2.400000X1.600000*%
%ADD13O,1.600000X1.600000*%
%ADD14R,1.600000X1.600000*%
%ADD15R,1.600000X2.400000*%
%ADD16O,1.600000X2.400000*%
G04 APERTURE END LIST*
D10*
X161500000Y-35250000D03*
X161500000Y-30250000D03*
D11*
X154240000Y-27650000D03*
X139000000Y-65750000D03*
X154240000Y-30190000D03*
X139000000Y-63210000D03*
X154240000Y-32730000D03*
X139000000Y-60670000D03*
X154240000Y-35270000D03*
X139000000Y-58130000D03*
X154240000Y-37810000D03*
X139000000Y-55590000D03*
X154240000Y-40350000D03*
X139000000Y-53050000D03*
X154240000Y-42890000D03*
X139000000Y-50510000D03*
X154240000Y-45430000D03*
X139000000Y-47970000D03*
X154240000Y-47970000D03*
X139000000Y-45430000D03*
X154240000Y-50510000D03*
X139000000Y-42890000D03*
X154240000Y-53050000D03*
X139000000Y-40350000D03*
X154240000Y-55590000D03*
X139000000Y-37810000D03*
X154240000Y-58130000D03*
X139000000Y-35270000D03*
X154240000Y-60670000D03*
X139000000Y-32730000D03*
X154240000Y-63210000D03*
X139000000Y-30190000D03*
X154240000Y-65750000D03*
D12*
X139000000Y-27650000D03*
D13*
X157240000Y-32750000D03*
X142000000Y-65770000D03*
X157240000Y-35290000D03*
X142000000Y-63230000D03*
X157240000Y-37830000D03*
X142000000Y-60690000D03*
X157240000Y-40370000D03*
X142000000Y-58150000D03*
X157240000Y-42910000D03*
X142000000Y-55610000D03*
X157240000Y-45450000D03*
X142000000Y-53070000D03*
X157240000Y-47990000D03*
X142000000Y-50530000D03*
X157240000Y-50530000D03*
X142000000Y-47990000D03*
X157240000Y-53070000D03*
X142000000Y-45450000D03*
X157240000Y-55610000D03*
X142000000Y-42910000D03*
X157240000Y-58150000D03*
X142000000Y-40370000D03*
X157240000Y-60690000D03*
X142000000Y-37830000D03*
X157240000Y-63230000D03*
X142000000Y-35290000D03*
X157240000Y-65770000D03*
D14*
X142000000Y-32750000D03*
D15*
X161500000Y-64750000D03*
D16*
X166580000Y-57130000D03*
X164040000Y-64750000D03*
X164040000Y-57130000D03*
X166580000Y-64750000D03*
X161500000Y-57130000D03*
D13*
X161500000Y-52910000D03*
X161500000Y-50370000D03*
X161500000Y-47830000D03*
X161500000Y-45290000D03*
D14*
X161500000Y-42750000D03*
M02*
