%TF.GenerationSoftware,KiCad,Pcbnew,(6.0.1)*%
%TF.CreationDate,2022-01-31T15:08:43+08:00*%
%TF.ProjectId,BeeMultiROM,4265654d-756c-4746-9952-4f4d2e6b6963,rev?*%
%TF.SameCoordinates,Original*%
%TF.FileFunction,Legend,Top*%
%TF.FilePolarity,Positive*%
%FSLAX46Y46*%
G04 Gerber Fmt 4.6, Leading zero omitted, Abs format (unit mm)*
G04 Created by KiCad (PCBNEW (6.0.1)) date 2022-01-31 15:08:43*
%MOMM*%
%LPD*%
G01*
G04 APERTURE LIST*
%ADD10C,0.150000*%
%ADD11C,0.120000*%
%ADD12C,1.600000*%
%ADD13O,2.400000X1.600000*%
%ADD14R,2.400000X1.600000*%
%ADD15O,1.600000X1.600000*%
%ADD16R,1.600000X1.600000*%
%ADD17R,1.600000X2.400000*%
%ADD18O,1.600000X2.400000*%
G04 APERTURE END LIST*
D10*
X167461214Y-37135714D02*
X167504071Y-37007142D01*
X167546928Y-36964285D01*
X167632642Y-36921428D01*
X167761214Y-36921428D01*
X167846928Y-36964285D01*
X167889785Y-37007142D01*
X167932642Y-37092857D01*
X167932642Y-37435714D01*
X167032642Y-37435714D01*
X167032642Y-37135714D01*
X167075500Y-37050000D01*
X167118357Y-37007142D01*
X167204071Y-36964285D01*
X167289785Y-36964285D01*
X167375500Y-37007142D01*
X167418357Y-37050000D01*
X167461214Y-37135714D01*
X167461214Y-37435714D01*
X167332642Y-36621428D02*
X167932642Y-36407142D01*
X167332642Y-36192857D02*
X167932642Y-36407142D01*
X168146928Y-36492857D01*
X168189785Y-36535714D01*
X168232642Y-36621428D01*
X167846928Y-34650000D02*
X167889785Y-34692857D01*
X167932642Y-34821428D01*
X167932642Y-34907142D01*
X167889785Y-35035714D01*
X167804071Y-35121428D01*
X167718357Y-35164285D01*
X167546928Y-35207142D01*
X167418357Y-35207142D01*
X167246928Y-35164285D01*
X167161214Y-35121428D01*
X167075500Y-35035714D01*
X167032642Y-34907142D01*
X167032642Y-34821428D01*
X167075500Y-34692857D01*
X167118357Y-34650000D01*
X167932642Y-34264285D02*
X167032642Y-34264285D01*
X167932642Y-33878571D02*
X167461214Y-33878571D01*
X167375500Y-33921428D01*
X167332642Y-34007142D01*
X167332642Y-34135714D01*
X167375500Y-34221428D01*
X167418357Y-34264285D01*
X167889785Y-33107142D02*
X167932642Y-33192857D01*
X167932642Y-33364285D01*
X167889785Y-33450000D01*
X167804071Y-33492857D01*
X167461214Y-33492857D01*
X167375500Y-33450000D01*
X167332642Y-33364285D01*
X167332642Y-33192857D01*
X167375500Y-33107142D01*
X167461214Y-33064285D01*
X167546928Y-33064285D01*
X167632642Y-33492857D01*
X167889785Y-32721428D02*
X167932642Y-32635714D01*
X167932642Y-32464285D01*
X167889785Y-32378571D01*
X167804071Y-32335714D01*
X167761214Y-32335714D01*
X167675500Y-32378571D01*
X167632642Y-32464285D01*
X167632642Y-32592857D01*
X167589785Y-32678571D01*
X167504071Y-32721428D01*
X167461214Y-32721428D01*
X167375500Y-32678571D01*
X167332642Y-32592857D01*
X167332642Y-32464285D01*
X167375500Y-32378571D01*
X167932642Y-31950000D02*
X167032642Y-31950000D01*
X167932642Y-31564285D02*
X167461214Y-31564285D01*
X167375500Y-31607142D01*
X167332642Y-31692857D01*
X167332642Y-31821428D01*
X167375500Y-31907142D01*
X167418357Y-31950000D01*
X167932642Y-31135714D02*
X167332642Y-31135714D01*
X167032642Y-31135714D02*
X167075500Y-31178571D01*
X167118357Y-31135714D01*
X167075500Y-31092857D01*
X167032642Y-31135714D01*
X167118357Y-31135714D01*
X167932642Y-30707142D02*
X167332642Y-30707142D01*
X167504071Y-30707142D02*
X167418357Y-30664285D01*
X167375500Y-30621428D01*
X167332642Y-30535714D01*
X167332642Y-30450000D01*
X167889785Y-29807142D02*
X167932642Y-29892857D01*
X167932642Y-30064285D01*
X167889785Y-30150000D01*
X167804071Y-30192857D01*
X167461214Y-30192857D01*
X167375500Y-30150000D01*
X167332642Y-30064285D01*
X167332642Y-29892857D01*
X167375500Y-29807142D01*
X167461214Y-29764285D01*
X167546928Y-29764285D01*
X167632642Y-30192857D01*
X167932642Y-29378571D02*
X167032642Y-29378571D01*
X167932642Y-28864285D01*
X167032642Y-28864285D01*
X167932642Y-28307142D02*
X167889785Y-28392857D01*
X167846928Y-28435714D01*
X167761214Y-28478571D01*
X167504071Y-28478571D01*
X167418357Y-28435714D01*
X167375500Y-28392857D01*
X167332642Y-28307142D01*
X167332642Y-28178571D01*
X167375500Y-28092857D01*
X167418357Y-28050000D01*
X167504071Y-28007142D01*
X167761214Y-28007142D01*
X167846928Y-28050000D01*
X167889785Y-28092857D01*
X167932642Y-28178571D01*
X167932642Y-28307142D01*
X167932642Y-27621428D02*
X167332642Y-27621428D01*
X167032642Y-27621428D02*
X167075500Y-27664285D01*
X167118357Y-27621428D01*
X167075500Y-27578571D01*
X167032642Y-27621428D01*
X167118357Y-27621428D01*
X167932642Y-27192857D02*
X167332642Y-27192857D01*
X167504071Y-27192857D02*
X167418357Y-27150000D01*
X167375500Y-27107142D01*
X167332642Y-27021428D01*
X167332642Y-26935714D01*
X169295928Y-34757142D02*
X169338785Y-34800000D01*
X169381642Y-34928571D01*
X169381642Y-35014285D01*
X169338785Y-35142857D01*
X169253071Y-35228571D01*
X169167357Y-35271428D01*
X168995928Y-35314285D01*
X168867357Y-35314285D01*
X168695928Y-35271428D01*
X168610214Y-35228571D01*
X168524500Y-35142857D01*
X168481642Y-35014285D01*
X168481642Y-34928571D01*
X168524500Y-34800000D01*
X168567357Y-34757142D01*
X169295928Y-33857142D02*
X169338785Y-33900000D01*
X169381642Y-34028571D01*
X169381642Y-34114285D01*
X169338785Y-34242857D01*
X169253071Y-34328571D01*
X169167357Y-34371428D01*
X168995928Y-34414285D01*
X168867357Y-34414285D01*
X168695928Y-34371428D01*
X168610214Y-34328571D01*
X168524500Y-34242857D01*
X168481642Y-34114285D01*
X168481642Y-34028571D01*
X168524500Y-33900000D01*
X168567357Y-33857142D01*
X168910214Y-32485714D02*
X168953071Y-32357142D01*
X168995928Y-32314285D01*
X169081642Y-32271428D01*
X169210214Y-32271428D01*
X169295928Y-32314285D01*
X169338785Y-32357142D01*
X169381642Y-32442857D01*
X169381642Y-32785714D01*
X168481642Y-32785714D01*
X168481642Y-32485714D01*
X168524500Y-32400000D01*
X168567357Y-32357142D01*
X168653071Y-32314285D01*
X168738785Y-32314285D01*
X168824500Y-32357142D01*
X168867357Y-32400000D01*
X168910214Y-32485714D01*
X168910214Y-32785714D01*
X168953071Y-31714285D02*
X169381642Y-31714285D01*
X168481642Y-32014285D02*
X168953071Y-31714285D01*
X168481642Y-31414285D01*
X169338785Y-30471428D02*
X169381642Y-30342857D01*
X169381642Y-30128571D01*
X169338785Y-30042857D01*
X169295928Y-30000000D01*
X169210214Y-29957142D01*
X169124500Y-29957142D01*
X169038785Y-30000000D01*
X168995928Y-30042857D01*
X168953071Y-30128571D01*
X168910214Y-30300000D01*
X168867357Y-30385714D01*
X168824500Y-30428571D01*
X168738785Y-30471428D01*
X168653071Y-30471428D01*
X168567357Y-30428571D01*
X168524500Y-30385714D01*
X168481642Y-30300000D01*
X168481642Y-30085714D01*
X168524500Y-29957142D01*
X169124500Y-29614285D02*
X169124500Y-29185714D01*
X169381642Y-29700000D02*
X168481642Y-29400000D01*
X169381642Y-29100000D01*
X165650000Y-37866666D02*
X165716666Y-37666666D01*
X165783333Y-37600000D01*
X165916666Y-37533333D01*
X166116666Y-37533333D01*
X166250000Y-37600000D01*
X166316666Y-37666666D01*
X166383333Y-37800000D01*
X166383333Y-38333333D01*
X164983333Y-38333333D01*
X164983333Y-37866666D01*
X165050000Y-37733333D01*
X165116666Y-37666666D01*
X165250000Y-37600000D01*
X165383333Y-37600000D01*
X165516666Y-37666666D01*
X165583333Y-37733333D01*
X165650000Y-37866666D01*
X165650000Y-38333333D01*
X166316666Y-36400000D02*
X166383333Y-36533333D01*
X166383333Y-36800000D01*
X166316666Y-36933333D01*
X166183333Y-37000000D01*
X165650000Y-37000000D01*
X165516666Y-36933333D01*
X165450000Y-36800000D01*
X165450000Y-36533333D01*
X165516666Y-36400000D01*
X165650000Y-36333333D01*
X165783333Y-36333333D01*
X165916666Y-37000000D01*
X166316666Y-35200000D02*
X166383333Y-35333333D01*
X166383333Y-35600000D01*
X166316666Y-35733333D01*
X166183333Y-35800000D01*
X165650000Y-35800000D01*
X165516666Y-35733333D01*
X165450000Y-35600000D01*
X165450000Y-35333333D01*
X165516666Y-35200000D01*
X165650000Y-35133333D01*
X165783333Y-35133333D01*
X165916666Y-35800000D01*
X166383333Y-34533333D02*
X164983333Y-34533333D01*
X165983333Y-34066666D01*
X164983333Y-33600000D01*
X166383333Y-33600000D01*
X165450000Y-32333333D02*
X166383333Y-32333333D01*
X165450000Y-32933333D02*
X166183333Y-32933333D01*
X166316666Y-32866666D01*
X166383333Y-32733333D01*
X166383333Y-32533333D01*
X166316666Y-32400000D01*
X166250000Y-32333333D01*
X166383333Y-31466666D02*
X166316666Y-31600000D01*
X166183333Y-31666666D01*
X164983333Y-31666666D01*
X165450000Y-31133333D02*
X165450000Y-30600000D01*
X164983333Y-30933333D02*
X166183333Y-30933333D01*
X166316666Y-30866666D01*
X166383333Y-30733333D01*
X166383333Y-30600000D01*
X166383333Y-30133333D02*
X165450000Y-30133333D01*
X164983333Y-30133333D02*
X165050000Y-30200000D01*
X165116666Y-30133333D01*
X165050000Y-30066666D01*
X164983333Y-30133333D01*
X165116666Y-30133333D01*
X166383333Y-28666666D02*
X165716666Y-29133333D01*
X166383333Y-29466666D02*
X164983333Y-29466666D01*
X164983333Y-28933333D01*
X165050000Y-28800000D01*
X165116666Y-28733333D01*
X165250000Y-28666666D01*
X165450000Y-28666666D01*
X165583333Y-28733333D01*
X165650000Y-28800000D01*
X165716666Y-28933333D01*
X165716666Y-29466666D01*
X164983333Y-27800000D02*
X164983333Y-27533333D01*
X165050000Y-27400000D01*
X165183333Y-27266666D01*
X165450000Y-27200000D01*
X165916666Y-27200000D01*
X166183333Y-27266666D01*
X166316666Y-27400000D01*
X166383333Y-27533333D01*
X166383333Y-27800000D01*
X166316666Y-27933333D01*
X166183333Y-28066666D01*
X165916666Y-28133333D01*
X165450000Y-28133333D01*
X165183333Y-28066666D01*
X165050000Y-27933333D01*
X164983333Y-27800000D01*
X166383333Y-26600000D02*
X164983333Y-26600000D01*
X165983333Y-26133333D01*
X164983333Y-25666666D01*
X166383333Y-25666666D01*
X164357142Y-32916666D02*
X164404761Y-32964285D01*
X164452380Y-33107142D01*
X164452380Y-33202380D01*
X164404761Y-33345238D01*
X164309523Y-33440476D01*
X164214285Y-33488095D01*
X164023809Y-33535714D01*
X163880952Y-33535714D01*
X163690476Y-33488095D01*
X163595238Y-33440476D01*
X163500000Y-33345238D01*
X163452380Y-33202380D01*
X163452380Y-33107142D01*
X163500000Y-32964285D01*
X163547619Y-32916666D01*
X164452380Y-31964285D02*
X164452380Y-32535714D01*
X164452380Y-32250000D02*
X163452380Y-32250000D01*
X163595238Y-32345238D01*
X163690476Y-32440476D01*
X163738095Y-32535714D01*
X145858095Y-24772380D02*
X145858095Y-25581904D01*
X145905714Y-25677142D01*
X145953333Y-25724761D01*
X146048571Y-25772380D01*
X146239047Y-25772380D01*
X146334285Y-25724761D01*
X146381904Y-25677142D01*
X146429523Y-25581904D01*
X146429523Y-24772380D01*
X146858095Y-24867619D02*
X146905714Y-24820000D01*
X147000952Y-24772380D01*
X147239047Y-24772380D01*
X147334285Y-24820000D01*
X147381904Y-24867619D01*
X147429523Y-24962857D01*
X147429523Y-25058095D01*
X147381904Y-25200952D01*
X146810476Y-25772380D01*
X147429523Y-25772380D01*
X148858095Y-29872380D02*
X148858095Y-30681904D01*
X148905714Y-30777142D01*
X148953333Y-30824761D01*
X149048571Y-30872380D01*
X149239047Y-30872380D01*
X149334285Y-30824761D01*
X149381904Y-30777142D01*
X149429523Y-30681904D01*
X149429523Y-29872380D01*
X150429523Y-30872380D02*
X149858095Y-30872380D01*
X150143809Y-30872380D02*
X150143809Y-29872380D01*
X150048571Y-30015238D01*
X149953333Y-30110476D01*
X149858095Y-30158095D01*
X159574761Y-62273333D02*
X159622380Y-62130476D01*
X159622380Y-61892380D01*
X159574761Y-61797142D01*
X159527142Y-61749523D01*
X159431904Y-61701904D01*
X159336666Y-61701904D01*
X159241428Y-61749523D01*
X159193809Y-61797142D01*
X159146190Y-61892380D01*
X159098571Y-62082857D01*
X159050952Y-62178095D01*
X159003333Y-62225714D01*
X158908095Y-62273333D01*
X158812857Y-62273333D01*
X158717619Y-62225714D01*
X158670000Y-62178095D01*
X158622380Y-62082857D01*
X158622380Y-61844761D01*
X158670000Y-61701904D01*
X158622380Y-61368571D02*
X159622380Y-61130476D01*
X158908095Y-60940000D01*
X159622380Y-60749523D01*
X158622380Y-60511428D01*
X159622380Y-59606666D02*
X159622380Y-60178095D01*
X159622380Y-59892380D02*
X158622380Y-59892380D01*
X158765238Y-59987619D01*
X158860476Y-60082857D01*
X158908095Y-60178095D01*
X164352380Y-49790476D02*
X163876190Y-50123809D01*
X164352380Y-50361904D02*
X163352380Y-50361904D01*
X163352380Y-49980952D01*
X163400000Y-49885714D01*
X163447619Y-49838095D01*
X163542857Y-49790476D01*
X163685714Y-49790476D01*
X163780952Y-49838095D01*
X163828571Y-49885714D01*
X163876190Y-49980952D01*
X163876190Y-50361904D01*
X164352380Y-49361904D02*
X163352380Y-49361904D01*
X164352380Y-48790476D01*
X163352380Y-48790476D01*
X164352380Y-47790476D02*
X164352380Y-48361904D01*
X164352380Y-48076190D02*
X163352380Y-48076190D01*
X163495238Y-48171428D01*
X163590476Y-48266666D01*
X163638095Y-48361904D01*
D11*
X162870000Y-36870000D02*
X160130000Y-36870000D01*
X162870000Y-28630000D02*
X160130000Y-28630000D01*
X160130000Y-28630000D02*
X160130000Y-36870000D01*
X162870000Y-28630000D02*
X162870000Y-36870000D01*
X145620000Y-26320000D02*
X140560000Y-26320000D01*
X140560000Y-26320000D02*
X140560000Y-67080000D01*
X140560000Y-67080000D02*
X152680000Y-67080000D01*
X152680000Y-67080000D02*
X152680000Y-26320000D01*
X152680000Y-26320000D02*
X147620000Y-26320000D01*
X145620000Y-26320000D02*
G75*
G03*
X147620000Y-26320000I1000000J0D01*
G01*
X148620000Y-31420000D02*
X143160000Y-31420000D01*
X143160000Y-31420000D02*
X143160000Y-67100000D01*
X143160000Y-67100000D02*
X156080000Y-67100000D01*
X156080000Y-67100000D02*
X156080000Y-31420000D01*
X156080000Y-31420000D02*
X150620000Y-31420000D01*
X148620000Y-31420000D02*
G75*
G03*
X150620000Y-31420000I1000000J0D01*
G01*
X160170000Y-61940000D02*
G75*
G03*
X160170000Y-59940000I0J1000000D01*
G01*
X160170000Y-58690000D02*
X160170000Y-59940000D01*
X167910000Y-58690000D02*
X160170000Y-58690000D01*
X167910000Y-63190000D02*
X167910000Y-58690000D01*
X160170000Y-63190000D02*
X167910000Y-63190000D01*
X160170000Y-61940000D02*
X160170000Y-63190000D01*
X162900000Y-41310000D02*
X160100000Y-41310000D01*
X160100000Y-41310000D02*
X160100000Y-54350000D01*
X160100000Y-54350000D02*
X162900000Y-54350000D01*
X162900000Y-54350000D02*
X162900000Y-41310000D01*
X162900000Y-44020000D02*
X160100000Y-44020000D01*
%LPC*%
D12*
X161500000Y-35250000D03*
X161500000Y-30250000D03*
D13*
X154240000Y-27650000D03*
X139000000Y-65750000D03*
X154240000Y-30190000D03*
X139000000Y-63210000D03*
X154240000Y-32730000D03*
X139000000Y-60670000D03*
X154240000Y-35270000D03*
X139000000Y-58130000D03*
X154240000Y-37810000D03*
X139000000Y-55590000D03*
X154240000Y-40350000D03*
X139000000Y-53050000D03*
X154240000Y-42890000D03*
X139000000Y-50510000D03*
X154240000Y-45430000D03*
X139000000Y-47970000D03*
X154240000Y-47970000D03*
X139000000Y-45430000D03*
X154240000Y-50510000D03*
X139000000Y-42890000D03*
X154240000Y-53050000D03*
X139000000Y-40350000D03*
X154240000Y-55590000D03*
X139000000Y-37810000D03*
X154240000Y-58130000D03*
X139000000Y-35270000D03*
X154240000Y-60670000D03*
X139000000Y-32730000D03*
X154240000Y-63210000D03*
X139000000Y-30190000D03*
X154240000Y-65750000D03*
D14*
X139000000Y-27650000D03*
D15*
X157240000Y-32750000D03*
X142000000Y-65770000D03*
X157240000Y-35290000D03*
X142000000Y-63230000D03*
X157240000Y-37830000D03*
X142000000Y-60690000D03*
X157240000Y-40370000D03*
X142000000Y-58150000D03*
X157240000Y-42910000D03*
X142000000Y-55610000D03*
X157240000Y-45450000D03*
X142000000Y-53070000D03*
X157240000Y-47990000D03*
X142000000Y-50530000D03*
X157240000Y-50530000D03*
X142000000Y-47990000D03*
X157240000Y-53070000D03*
X142000000Y-45450000D03*
X157240000Y-55610000D03*
X142000000Y-42910000D03*
X157240000Y-58150000D03*
X142000000Y-40370000D03*
X157240000Y-60690000D03*
X142000000Y-37830000D03*
X157240000Y-63230000D03*
X142000000Y-35290000D03*
X157240000Y-65770000D03*
D16*
X142000000Y-32750000D03*
D17*
X161500000Y-64750000D03*
D18*
X166580000Y-57130000D03*
X164040000Y-64750000D03*
X164040000Y-57130000D03*
X166580000Y-64750000D03*
X161500000Y-57130000D03*
D15*
X161500000Y-52910000D03*
X161500000Y-50370000D03*
X161500000Y-47830000D03*
X161500000Y-45290000D03*
D16*
X161500000Y-42750000D03*
M02*
