M48
; DRILL file {KiCad (6.0.1)} date Mon Jan 31 15:09:09 2022
; FORMAT={-:-/ absolute / metric / decimal}
; #@! TF.CreationDate,2022-01-31T15:09:09+08:00
; #@! TF.GenerationSoftware,Kicad,Pcbnew,(6.0.1)
; #@! TF.FileFunction,Plated,1,2,PTH
FMAT,2
METRIC
; #@! TA.AperFunction,Plated,PTH,ComponentDrill
T1C0.800
%
G90
G05
T1
X139.0Y-27.65
X139.0Y-30.19
X139.0Y-32.73
X139.0Y-35.27
X139.0Y-37.81
X139.0Y-40.35
X139.0Y-42.89
X139.0Y-45.43
X139.0Y-47.97
X139.0Y-50.51
X139.0Y-53.05
X139.0Y-55.59
X139.0Y-58.13
X139.0Y-60.67
X139.0Y-63.21
X139.0Y-65.75
X142.0Y-32.75
X142.0Y-35.29
X142.0Y-37.83
X142.0Y-40.37
X142.0Y-42.91
X142.0Y-45.45
X142.0Y-47.99
X142.0Y-50.53
X142.0Y-53.07
X142.0Y-55.61
X142.0Y-58.15
X142.0Y-60.69
X142.0Y-63.23
X142.0Y-65.77
X154.24Y-27.65
X154.24Y-30.19
X154.24Y-32.73
X154.24Y-35.27
X154.24Y-37.81
X154.24Y-40.35
X154.24Y-42.89
X154.24Y-45.43
X154.24Y-47.97
X154.24Y-50.51
X154.24Y-53.05
X154.24Y-55.59
X154.24Y-58.13
X154.24Y-60.67
X154.24Y-63.21
X154.24Y-65.75
X157.24Y-32.75
X157.24Y-35.29
X157.24Y-37.83
X157.24Y-40.37
X157.24Y-42.91
X157.24Y-45.45
X157.24Y-47.99
X157.24Y-50.53
X157.24Y-53.07
X157.24Y-55.61
X157.24Y-58.15
X157.24Y-60.69
X157.24Y-63.23
X157.24Y-65.77
X161.5Y-30.25
X161.5Y-35.25
X161.5Y-42.75
X161.5Y-45.29
X161.5Y-47.83
X161.5Y-50.37
X161.5Y-52.91
X161.5Y-57.13
X161.5Y-64.75
X164.04Y-57.13
X164.04Y-64.75
X166.58Y-57.13
X166.58Y-64.75
T0
M30
